<svg xmlns="http://www.w3.org/2000/svg" fill="#FFF" viewBox="0 0 453.2 471.5">
    <path fill="none" d="M295.5 27.1h3V43h-3z" />
    <path fill="none" stroke="#fff" stroke-miterlimit="10" stroke-width="6"
        d="M267.8 25.1c-15.6-3.4-24.6-3.8-41.2-3.8C103.1 21.3 3 121.4 3 244.9s100.1 223.6 223.6 223.6 223.6-100.1 223.6-223.6c0-79.9-35.1-145.5-98.1-185.1" />
    <path
        d="M295.5 410.7L278 406V3.5L295.5 0zM119.2 373.9l-17.4-4.5V141.2l17.4-2.8zM81.3 234h17.9v21.2H81.3zM133.2 234h141.9v21.2H133.2zM307.9 253l10.9-19h-10.9zM321.1 234h6.7l-12.1 21.2H309z" />
    <path
        d="M298.5 0v410.7l44-11.2V8.6zm18.6 256.7l-11.3-.1V232h25.4zM122.2 138.5v235.3l42.9-12.6V257.7h-33.9v-25.6h33.9v-84.7z" />
</svg>