<svg xmlns="http://www.w3.org/2000/svg" viewBox="0 0 1176.1 525">
    <!-- <path fill="none" d="M377.9 75.6h3v15.9h-3z" /> -->
    <path fill="none" stroke="#000" stroke-miterlimit="10" stroke-width="8"
        d="M350.2 73.6c-15.6-3.4-24.6-3.8-41.2-3.8-123.5 0-223.6 100.1-223.6 223.6S185.5 517 309 517s223.6-100.1 223.6-223.6c0-79.9-35.1-145.5-98.1-185.1" />
    <path
        d="M377.9 459.2l-17.5-4.7V52l17.5-3.5zM201.6 422.4l-17.4-4.5V189.7l17.4-2.8zM163.7 282.5h17.9v21.2h-17.9zM215.6 282.5h141.9v21.2H215.6zM390.3 282.5v19l10.9-19zM403.5 282.5h6.7l-12.1 21.2h-6.7z" />
    <path
        d="M380.9 48.5v410.7l44-11.2V57.1l-44-8.6zm18.6 256.7l-11.3-.1v-24.6h25.4l-14.1 24.7zM213.6 306.2v-25.6h33.9v-84.7l-42.9-8.9v235.3l42.9-12.6V306.2zM626 233.2c7.4 21.5 12.6 36.7 14.3 43h.1c1.1-4.5 6.5-19.2 15.1-43h6.8l-18.4 49.3h-7.5L619 233.2h7zM705.6 272.5c0 4.4.4 8.5.7 10H700c-.4-1.1-.7-3.4-.9-7.1-1.7 3.5-5.9 8.3-15.7 8.3-11.5 0-16.5-7.5-16.5-14.9 0-10.9 8.5-15.9 23.2-15.9h8.9v-4.7c0-4.7-1.4-10.7-11.8-10.7-9.2 0-10.6 4.7-11.6 8.7h-6.4c.6-6.1 4.4-14.2 18.2-14.2 11.6 0 18.1 4.8 18.1 15.8v24.7zm-6.4-14.6h-8.9c-10.4 0-16.5 2.8-16.5 10.6 0 5.7 4 9.7 10.5 9.7 13.1 0 14.9-8.7 14.9-18.6v-1.7zM721.1 245.6c0-4.3 0-8.5-.1-12.4h6.4c.2 1.5.3 7.4.3 8.8 2.1-4.7 6.1-10 16-10 9 0 16.5 5.3 16.5 18.6v31.8h-6.6v-30.9c0-8.2-3.3-13.6-11.4-13.6-10.6 0-14.5 8.5-14.5 18.9v25.6h-6.6v-36.8zM802.4 214.1h7v29.2H848v-29.2h7v68.4h-7v-33h-38.6v33h-7v-68.4zM912.9 257.8c0 13.9-7.8 25.9-22.7 25.9-13.7 0-22.1-10.9-22.1-25.8 0-14.3 8.1-25.9 22.6-25.9 13.4 0 22.2 10.3 22.2 25.8zm-38 .1c0 11.3 5.9 20.1 15.6 20.1 9.9 0 15.5-8.2 15.5-20.1 0-11.4-5.5-20.1-15.7-20.1-10.3 0-15.4 8.5-15.4 20.1zM966.2 257.8c0 13.9-7.8 25.9-22.7 25.9-13.7 0-22.1-10.9-22.1-25.8 0-14.3 8.1-25.9 22.6-25.9 13.4 0 22.2 10.3 22.2 25.8zm-38 .1c0 11.3 5.9 20.1 15.6 20.1 9.9 0 15.5-8.2 15.5-20.1 0-11.4-5.5-20.1-15.7-20.1-10.3 0-15.4 8.5-15.4 20.1zM986.5 238.9v43.6h-6.6v-43.6h-8.2v-5.7h8.2v-6.4c0-8.8 2.4-17.4 13.5-17.4 1.6 0 3.4.1 4.6.7v5.8c-1.3-.4-3.1-.6-4.4-.6-5.2 0-7.1 3.4-7.1 11v6.9h19v-6.4c0-8.8 2.5-17.4 13.5-17.4 1.6 0 3.4.1 4.6.7v5.8c-1.3-.4-3.1-.6-4.4-.6-5.2 0-7.1 3.4-7.1 11v6.9h10.1v5.7H1012v43.6h-6.6v-43.6h-18.9z" />
    <g>
        <path
            d="M627 339.2h23.5c19 0 32 13.1 32 33.6 0 20.3-12.7 34.8-32.2 34.8H627v-68.4zm6.9 62.3h15.5c17.2 0 25.5-12.2 25.5-28.4 0-14.4-7.5-27.7-25.5-27.7h-15.6v56.1zM698.2 384c.1 11.5 5.9 19 14.8 19 8.6 0 11.5-4.7 13.2-8.5h6.6c-2 6.4-7.3 14.3-20 14.3-15.2 0-21.3-12.8-21.3-25.4 0-14.4 7.2-26.3 21.8-26.3 15.5 0 20.5 13 20.5 22.8 0 1.4 0 2.8-.1 4.1h-35.5zm29-5.1c-.1-9-4.9-16.2-14-16.2-9.5 0-13.7 6.6-14.7 16.2h28.7zM748.4 393.8c1.6 5.9 5.8 9.5 13.1 9.5 8.1 0 11.3-3.6 11.3-8.7 0-5.2-2.3-7.6-12.6-10.1-13.4-3.2-16.4-7.3-16.4-13.9 0-6.9 5.1-13.5 17-13.5s17.1 7.1 17.9 14h-6.4c-.8-3.7-3.7-8.5-11.7-8.5-7.8 0-10.1 3.8-10.1 7.4 0 4.1 2.2 6.2 11.6 8.5 14.4 3.4 17.6 8.2 17.6 15.6 0 8.8-7.1 14.7-18.3 14.7-11.9 0-18.2-6.2-19.6-15h6.6zM791.3 335.5h6.6v10.1h-6.6v-10.1zm0 22.8h6.6v49.3h-6.6v-49.3zM852.3 403.8c0 15.8-6.8 24.4-21.9 24.4-13.8 0-18.8-7.7-19.8-14.9h6.7c1.6 6.2 6.7 9.2 13.4 9.2 12.1 0 15.3-7.7 15.3-19.7v-4.6c-2.6 6-7.3 9.3-16 9.3-11.8 0-20.4-9.6-20.4-24.5 0-16.4 9.4-25.9 21.2-25.9 9.8 0 13.9 4.6 15.2 8.2.1-2.6.2-5.9.3-7.1h6.2c0 2.3-.2 9.5-.2 14.3v31.3zm-35.8-21.1c0 11.1 5.8 19 14.7 19 11.6 0 15-7.7 15-19.7 0-12.1-3.5-19.1-14.7-19.1-10.4.1-15 8.9-15 19.8zM867.7 370.8c0-4.3 0-8.5-.1-12.4h6.4c.2 1.5.3 7.4.3 8.8 2.1-4.7 6.1-10 16-10 9 0 16.5 5.3 16.5 18.6v31.8h-6.6v-30.9c0-8.2-3.3-13.6-11.4-13.6-10.6 0-14.5 8.5-14.5 18.9v25.6h-6.6v-36.8z" />
    </g>
</svg>